<?xml version="1.0" encoding="UTF-8" standalone="no"?>
<!-- Generator: Adobe Illustrator 19.0.0, SVG Export Plug-In . SVG Version: 6.00 Build 0)  -->

<svg
   xmlns:dc="http://purl.org/dc/elements/1.1/"
   xmlns:cc="http://creativecommons.org/ns#"
   xmlns:rdf="http://www.w3.org/1999/02/22-rdf-syntax-ns#"
   xmlns:svg="http://www.w3.org/2000/svg"
   xmlns="http://www.w3.org/2000/svg"
   xmlns:sodipodi="http://sodipodi.sourceforge.net/DTD/sodipodi-0.dtd"
   xmlns:inkscape="http://www.inkscape.org/namespaces/inkscape"
   version="1.1"
   id="Capa_1"
   x="0px"
   y="0px"
   viewBox="0 0 128 128"
   xml:space="preserve"
   inkscape:version="0.91 r13725"
   sodipodi:docname="defaultAlbumImage.svg"
   width="128"
   height="128"><metadata
     id="metadata55"><rdf:RDF><cc:Work
         rdf:about=""><dc:format>image/svg+xml</dc:format><dc:type
           rdf:resource="http://purl.org/dc/dcmitype/StillImage" /><dc:title></dc:title></cc:Work></rdf:RDF></metadata><defs
     id="defs53" /><sodipodi:namedview
     pagecolor="#ffffff"
     bordercolor="#666666"
     borderopacity="1"
     objecttolerance="10"
     gridtolerance="10"
     guidetolerance="10"
     inkscape:pageopacity="0"
     inkscape:pageshadow="2"
     inkscape:window-width="3200"
     inkscape:window-height="1693"
     id="namedview51"
     showgrid="false"
     inkscape:zoom="7.9527416"
     inkscape:cx="57.329659"
     inkscape:cy="53.233305"
     inkscape:window-x="0"
     inkscape:window-y="0"
     inkscape:window-maximized="1"
     inkscape:current-layer="Capa_1" /><g
     id="g3"
     transform="matrix(1.8666667,0,0,1.8666667,8,7.999998)"
     style="fill:#ffffff;fill-opacity:1"><path
       d="M 30,0 C 13.458,0 0,13.458 0,30 0,46.542 13.458,60 30,60 46.542,60 60,46.542 60,30 60,13.458 46.542,0 30,0 Z m 0,58 C 14.561,58 2,45.439 2,30 2,14.561 14.561,2 30,2 45.439,2 58,14.561 58,30 58,45.439 45.439,58 30,58 Z"
       id="path5"
       inkscape:connector-curvature="0"
       style="fill:#ffffff;fill-opacity:1" /><path
       d="M 23.165,8.459 C 23.702,8.329 24.033,7.789 23.904,7.253 23.775,6.716 23.234,6.387 22.698,6.514 18.763,7.46 15.176,9.469 12.322,12.323 9.468,15.177 7.46,18.764 6.514,22.698 c -0.129,0.536 0.202,1.076 0.739,1.206 0.078,0.019 0.157,0.027 0.234,0.027 0.451,0 0.861,-0.308 0.972,-0.767 0.859,-3.575 2.685,-6.836 5.277,-9.429 2.592,-2.593 5.854,-4.417 9.429,-5.276 z"
       id="path7"
       inkscape:connector-curvature="0"
       style="fill:#ffffff;fill-opacity:1" /><path
       d="m 52.747,36.096 c -0.538,-0.129 -1.077,0.201 -1.206,0.739 -0.859,3.575 -2.685,6.836 -5.277,9.429 -2.592,2.593 -5.854,4.418 -9.43,5.277 -0.537,0.13 -0.868,0.67 -0.739,1.206 0.11,0.459 0.521,0.767 0.972,0.767 0.077,0 0.156,-0.009 0.234,-0.027 3.936,-0.946 7.523,-2.955 10.377,-5.809 2.854,-2.854 4.862,-6.441 5.809,-10.376 0.128,-0.536 -0.203,-1.076 -0.74,-1.206 z"
       id="path9"
       inkscape:connector-curvature="0"
       style="fill:#ffffff;fill-opacity:1" /><path
       d="m 24.452,13.286 c 0.538,-0.125 0.873,-0.663 0.747,-1.2 -0.125,-0.538 -0.665,-0.878 -1.2,-0.747 -3.09,0.72 -5.904,2.282 -8.141,4.52 -2.237,2.236 -3.8,5.051 -4.52,8.141 -0.126,0.537 0.209,1.075 0.747,1.2 0.076,0.019 0.152,0.026 0.228,0.026 0.454,0 0.865,-0.312 0.973,-0.773 0.635,-2.725 2.014,-5.207 3.986,-7.18 1.972,-1.973 4.456,-3.352 7.18,-3.987 z"
       id="path11"
       inkscape:connector-curvature="0"
       style="fill:#ffffff;fill-opacity:1" /><path
       d="m 48.661,36.001 c 0.126,-0.537 -0.209,-1.075 -0.747,-1.2 -0.538,-0.133 -1.075,0.209 -1.2,0.747 -0.635,2.725 -2.014,5.207 -3.986,7.18 -1.972,1.973 -4.455,3.352 -7.18,3.986 -0.538,0.125 -0.873,0.663 -0.747,1.2 0.107,0.462 0.519,0.773 0.973,0.773 0.075,0 0.151,-0.008 0.228,-0.026 3.09,-0.72 5.904,-2.282 8.141,-4.52 2.236,-2.236 3.798,-5.05 4.518,-8.14 z"
       id="path13"
       inkscape:connector-curvature="0"
       style="fill:#ffffff;fill-opacity:1" /><path
       d="m 26.495,16.925 c -0.119,-0.541 -0.653,-0.879 -1.19,-0.763 -4.557,0.997 -8.146,4.586 -9.143,9.143 -0.118,0.539 0.224,1.072 0.763,1.19 0.072,0.016 0.144,0.023 0.215,0.023 0.46,0 0.873,-0.318 0.976,-0.786 0.831,-3.796 3.821,-6.786 7.617,-7.617 0.538,-0.118 0.88,-0.651 0.762,-1.19 z"
       id="path15"
       inkscape:connector-curvature="0"
       style="fill:#ffffff;fill-opacity:1" /><path
       d="m 43.838,34.695 c 0.118,-0.539 -0.224,-1.072 -0.763,-1.19 -0.54,-0.118 -1.072,0.222 -1.19,0.763 -0.831,3.796 -3.821,6.786 -7.617,7.617 -0.539,0.118 -0.881,0.651 -0.763,1.19 0.103,0.468 0.516,0.786 0.976,0.786 0.071,0 0.143,-0.008 0.215,-0.023 4.556,-0.997 8.145,-4.586 9.142,-9.143 z"
       id="path17"
       inkscape:connector-curvature="0"
       style="fill:#ffffff;fill-opacity:1" /><path
       d="m 38.08,30 c 0,-4.455 -3.625,-8.08 -8.08,-8.08 -4.455,0 -8.08,3.625 -8.08,8.08 0,4.455 3.625,8.08 8.08,8.08 4.455,0 8.08,-3.625 8.08,-8.08 z M 30,36.08 c -3.353,0 -6.08,-2.728 -6.08,-6.08 0,-3.352 2.728,-6.08 6.08,-6.08 3.352,0 6.08,2.728 6.08,6.08 0,3.352 -2.727,6.08 -6.08,6.08 z"
       id="path19"
       inkscape:connector-curvature="0"
       style="fill:#ffffff;fill-opacity:1" /></g><g
     id="g21"
     transform="translate(0,68)" /><g
     id="g23"
     transform="translate(0,68)" /><g
     id="g25"
     transform="translate(0,68)" /><g
     id="g27"
     transform="translate(0,68)" /><g
     id="g29"
     transform="translate(0,68)" /><g
     id="g31"
     transform="translate(0,68)" /><g
     id="g33"
     transform="translate(0,68)" /><g
     id="g35"
     transform="translate(0,68)" /><g
     id="g37"
     transform="translate(0,68)" /><g
     id="g39"
     transform="translate(0,68)" /><g
     id="g41"
     transform="translate(0,68)" /><g
     id="g43"
     transform="translate(0,68)" /><g
     id="g45"
     transform="translate(0,68)" /><g
     id="g47"
     transform="translate(0,68)" /><g
     id="g49"
     transform="translate(0,68)" /></svg>